<?xml version="1.0" encoding="UTF-8" standalone="no"?>
<!DOCTYPE svg PUBLIC "-//W3C//DTD SVG 1.1//EN" "http://www.w3.org/Graphics/SVG/1.1/DTD/svg11.dtd">
<svg version="1.1" xmlns="http://www.w3.org/2000/svg" xmlns:xlink="http://www.w3.org/1999/xlink" preserveAspectRatio="xMidYMid meet" viewBox="235.8052373613645 262.7643207855974 145.3425558962204 68" width="282.69" height="128"><defs><path d="M281.83 272.28C289.66 272.33 296.84 277.33 299.57 284.62C300.75 287.77 301 291.02 300.67 294.37C300.18 299.28 298.71 303.84 295.93 307.93C291.65 314.23 285.61 317.74 278.12 318.91C275.59 319.3 273.04 319.25 270.49 319.25C269.44 319.25 268.87 318.77 268.81 317.9C268.74 316.96 269.33 316.24 270.37 316.18C271.53 316.1 272.69 316.16 273.85 316.13C280.9 315.94 287 313.51 291.83 308.3C295.21 304.65 296.93 300.2 297.51 295.3C297.91 291.9 297.87 288.51 296.52 285.29C294.46 280.36 290.76 277.34 285.67 275.93C283.7 275.39 281.67 275.29 279.65 275.28C272.08 275.23 264.51 275.26 256.95 275.26C256.63 275.26 256.31 275.27 255.99 275.24C255.24 275.17 254.66 274.56 254.61 273.81C254.6 273.09 255.12 272.46 255.83 272.33C256.18 272.28 256.53 272.26 256.87 272.28C257.72 272.28 261.95 272.28 269.57 272.28C275.02 272.27 279.1 272.27 281.83 272.28Z" id="a1bYbNzbVM"></path><path d="M248.25 308.46C247.96 308.48 247.67 308.47 247.38 308.44C246.6 308.34 246.1 307.89 246.03 307.09C245.95 306.3 246.32 305.76 247.07 305.48C247.55 305.31 248.04 305.34 248.53 305.34C257.46 305.34 266.39 305.36 275.31 305.33C278.44 305.32 281.15 304.16 283.29 301.86C285.14 299.89 286.1 297.51 286.39 294.83C286.61 292.73 286.31 290.8 285.01 289.08C283.56 287.17 281.6 286.21 279.24 286.2C270.81 286.16 262.37 286.19 253.94 286.17C253.05 286.17 252.15 286.1 251.26 286.02C250.49 285.95 250.06 285.48 250.01 284.71C249.95 283.86 250.38 283.25 251.15 283.1C251.41 283.07 251.67 283.05 251.93 283.07C254.64 283.07 276.35 283.07 279.06 283.07C283.62 283.08 287.56 285.83 289 290.14C290.02 293.2 289.66 296.29 288.51 299.25C286.32 304.95 281.15 308.45 275.03 308.46C270.63 308.48 266.22 308.46 261.82 308.46C259.11 308.46 249.61 308.46 248.25 308.46ZM238.45 286.02C237.58 286.01 236.92 285.44 236.82 284.66C236.72 283.88 237.21 283.21 238.15 283.02C238.66 282.93 239.18 282.9 239.7 282.91C241.12 282.9 242.54 282.9 243.96 282.91C244.4 282.91 244.83 282.96 245.25 283.06C246.02 283.26 246.44 283.91 246.35 284.71C246.26 285.5 245.78 285.98 244.97 286.01C243.84 286.04 242.71 286.02 241.58 286.02C240.54 286.02 239.5 286.04 238.45 286.02ZM257.67 319.25C256.73 319.23 256.1 318.7 256.01 317.91C255.93 317.06 256.56 316.3 257.42 316.22C259.52 316.05 261.64 316.05 263.75 316.21C264.55 316.24 265.18 316.92 265.14 317.73C265.14 317.76 265.14 317.79 265.14 317.81C265.07 318.68 264.46 319.22 263.49 319.25C263.3 319.25 262.35 319.25 260.62 319.25C259.31 319.26 258.33 319.26 257.67 319.25Z" id="gCfp0ZQMz"></path><path d="M314.15 295.76C314.15 313.44 328.48 327.76 346.15 327.76C363.82 327.76 378.15 313.44 378.15 295.76C378.15 278.09 363.82 263.76 346.15 263.76C328.47 263.76 314.15 278.09 314.15 295.76ZM337.04 316.15C338.86 316.15 353.42 316.15 355.24 316.15C355.24 320.3 351.17 323.65 346.14 323.65C341.12 323.65 337.04 320.29 337.04 316.15ZM361.2 313.67L331.11 313.67L331.11 308.22L361.2 308.22L361.2 313.67ZM331.19 305.41C331.02 305.2 330.92 305.09 330.9 305.07C327.82 301.33 327.09 299.37 326.39 297.39C326.38 297.32 330.12 298.15 332.78 298.75C332.78 298.75 334.15 299.07 336.14 299.43C334.23 297.18 333.09 294.32 333.09 291.4C333.09 284.99 338.01 279.38 336.23 274.85C337.96 274.99 339.81 278.5 339.93 283.98C341.77 281.44 342.54 276.8 342.54 273.96C342.54 271.02 344.48 267.6 346.41 267.49C344.68 270.34 346.86 272.78 348.8 278.84C349.52 281.11 349.43 284.94 349.99 287.37C350.18 282.33 351.04 274.97 354.24 272.42C352.83 275.62 354.45 279.63 355.56 281.55C357.35 284.66 358.43 287.01 358.43 291.45C358.43 294.44 357.33 297.25 355.47 299.45C357.59 299.06 359.05 298.7 359.05 298.7C359.73 298.57 365.22 297.49 365.91 297.36C365.91 297.36 364.91 301.46 361.08 305.41C361.08 305.41 351.12 305.41 331.19 305.41Z" id="isz4BRBku"></path></defs><g><g><use xlink:href="#a1bYbNzbVM" opacity="1" fill="#29f1fb" fill-opacity="1"></use><g><use xlink:href="#a1bYbNzbVM" opacity="1" fill-opacity="0" stroke="#000000" stroke-width="0.1" stroke-opacity="0"></use></g></g><g><use xlink:href="#gCfp0ZQMz" opacity="1" fill="#29f1fb" fill-opacity="1"></use><g><use xlink:href="#gCfp0ZQMz" opacity="1" fill-opacity="0" stroke="#000000" stroke-width="0.1" stroke-opacity="0"></use></g></g><g><use xlink:href="#isz4BRBku" opacity="1" fill="#da4e31" fill-opacity="1"></use><g><use xlink:href="#isz4BRBku" opacity="1" fill-opacity="0" stroke="#000000" stroke-width="1" stroke-opacity="0"></use></g></g></g></svg>